<?xml version="1.0" standalone="no"?>
<!DOCTYPE svg PUBLIC "-//W3C//DTD SVG 20010904//EN"
 "http://www.w3.org/TR/2001/REC-SVG-20010904/DTD/svg10.dtd">
<svg version="1.0" xmlns="http://www.w3.org/2000/svg"
 width="2408.000000pt" height="2408.000000pt" viewBox="0 0 2408.000000 2408.000000"
 preserveAspectRatio="xMidYMid meet">
<metadata>
Created by potrace 1.11, written by Peter Selinger 2001-2013
</metadata>
<g transform="translate(0.000000,2408.000000) scale(0.100000,-0.100000)"
fill="#000000" stroke="none">
<path d="M19959 24066 c-2 -3 -38 -7 -79 -11 -84 -7 -88 -8 -219 -30 -144 -25
-407 -96 -496 -134 -11 -5 -51 -21 -90 -36 -107 -43 -329 -155 -433 -219 -467
-290 -864 -731 -1096 -1219 -72 -152 -151 -351 -161 -407 -1 -3 -8 -30 -17
-60 -21 -68 -63 -259 -73 -323 -3 -27 -8 -56 -10 -65 -3 -18 -12 -103 -21
-192 -11 -123 -5 -426 11 -551 2 -19 7 -57 10 -85 6 -43 58 -297 69 -329 1 -5
6 -23 10 -40 46 -182 165 -467 278 -665 52 -88 169 -269 191 -292 6 -7 28 -34
48 -60 84 -111 271 -309 365 -388 126 -106 222 -181 275 -215 9 -5 41 -27 71
-47 242 -162 571 -305 872 -379 266 -66 423 -84 716 -84 243 0 416 16 585 55
28 7 59 13 70 14 36 5 177 46 285 83 408 139 764 357 1082 662 61 58 147 149
190 201 44 52 89 106 101 120 33 39 159 227 207 310 212 362 356 816 387 1216
14 183 8 482 -13 624 -16 118 -28 185 -46 260 -11 47 -22 95 -24 107 -9 47
-74 243 -113 341 -95 239 -223 467 -382 677 -91 121 -116 150 -203 245 -66 71
-225 218 -287 265 -35 27 -66 52 -69 56 -12 15 -183 131 -280 189 -119 72
-301 161 -436 214 -160 62 -418 134 -542 151 -20 3 -46 8 -58 10 -11 2 -45 7
-75 11 -30 3 -65 8 -79 11 -29 6 -515 14 -521 9z m342 -1269 c56 -23 114 -82
139 -139 22 -51 22 -59 24 -537 2 -483 2 -486 24 -529 29 -55 76 -100 132
-126 43 -20 61 -21 520 -22 320 -1 488 -5 516 -13 83 -23 166 -109 180 -188
29 -160 -17 -286 -130 -353 -49 -29 -65 -30 -621 -33 l-430 -2 -45 -24 c-55
-29 -92 -66 -122 -123 -23 -43 -23 -43 -24 -530 l-1 -487 -26 -53 c-53 -107
-140 -156 -275 -153 -133 3 -229 68 -264 178 -6 20 -11 206 -12 497 -1 256 -6
480 -10 498 -18 76 -74 143 -150 178 -49 23 -51 23 -529 23 l-480 1 -51 24
c-112 54 -149 117 -153 256 -2 84 1 102 22 145 29 60 39 73 85 107 68 50 81
51 590 52 457 2 477 2 520 22 25 12 62 39 82 62 73 81 71 62 73 602 2 470 3
486 23 530 52 112 140 160 281 155 42 -1 92 -9 112 -18z"/>
<path d="M11817 23624 c-1 -1 -94 -5 -207 -9 -113 -4 -225 -8 -250 -10 -25 -1
-94 -6 -155 -10 -60 -3 -121 -8 -135 -10 -14 -2 -63 -7 -110 -10 -47 -4 -98
-8 -115 -11 -16 -2 -57 -6 -90 -9 -33 -3 -76 -8 -96 -11 -20 -2 -55 -7 -79 -9
-24 -2 -61 -7 -84 -11 -41 -6 -55 -8 -151 -20 -27 -3 -52 -7 -55 -9 -3 -2 -30
-6 -60 -9 -30 -4 -68 -10 -85 -13 -16 -3 -39 -7 -50 -8 -11 -2 -58 -10 -105
-19 -47 -8 -101 -18 -120 -21 -19 -3 -80 -15 -135 -26 -624 -128 -1184 -285
-1726 -485 -81 -30 -149 -54 -153 -54 -3 0 -25 -8 -49 -19 -23 -10 -69 -29
-102 -42 -33 -12 -152 -62 -265 -110 -854 -362 -1691 -844 -2428 -1396 -61
-47 -112 -86 -112 -88 0 -2 7 -34 16 -72 17 -72 18 -77 27 -133 18 -102 22
-172 22 -340 0 -207 -6 -279 -36 -424 -140 -673 -603 -1241 -1229 -1508 -151
-64 -359 -124 -497 -143 -26 -4 -59 -9 -73 -12 -14 -3 -115 -7 -225 -8 -160
-3 -225 1 -325 16 -69 11 -136 21 -149 22 -28 2 -30 0 -198 -253 -176 -267
-250 -386 -372 -600 -40 -69 -76 -132 -81 -140 -95 -157 -384 -732 -486 -967
-8 -18 -20 -48 -28 -66 -8 -17 -24 -55 -36 -82 -12 -27 -27 -63 -35 -80 -7
-16 -43 -106 -80 -200 -36 -93 -71 -181 -77 -195 -40 -94 -178 -503 -249 -735
-72 -239 -180 -640 -203 -760 -3 -11 -13 -60 -25 -110 -11 -49 -22 -101 -25
-115 -2 -14 -11 -59 -20 -100 -13 -65 -20 -102 -42 -220 -16 -86 -35 -199 -49
-290 -9 -58 -18 -116 -20 -130 -11 -73 -42 -315 -50 -405 -4 -33 -8 -71 -10
-85 -2 -14 -7 -63 -10 -110 -4 -47 -8 -101 -10 -120 -2 -19 -7 -78 -10 -130
-3 -52 -8 -115 -10 -140 -23 -264 -23 -1033 0 -1395 11 -175 16 -252 20 -280
2 -16 7 -66 10 -110 3 -44 8 -98 11 -120 3 -22 7 -58 8 -80 5 -53 33 -283 46
-365 17 -117 20 -134 30 -207 6 -39 13 -82 16 -95 2 -13 7 -36 9 -53 12 -66
25 -141 30 -165 3 -14 8 -41 11 -60 4 -19 24 -118 46 -220 22 -102 41 -194 44
-206 16 -83 97 -389 154 -589 134 -468 314 -978 481 -1360 22 -49 109 -246
135 -305 44 -99 276 -562 335 -670 136 -249 205 -368 315 -548 199 -323 505
-772 526 -772 6 0 37 16 69 36 143 87 365 177 544 222 94 24 109 27 285 51 36
5 148 9 248 9 258 -2 472 -40 702 -125 416 -153 768 -430 1018 -802 153 -228
256 -472 311 -741 19 -90 23 -114 37 -235 13 -109 6 -374 -12 -481 -45 -272
-108 -467 -219 -679 l-52 -100 161 -106 c540 -354 1205 -710 1796 -961 63 -27
124 -53 135 -58 39 -18 351 -139 425 -165 41 -14 84 -30 95 -35 22 -10 363
-124 490 -163 301 -95 882 -243 1100 -282 11 -2 81 -16 155 -30 190 -36 352
-65 408 -71 26 -3 54 -7 62 -9 8 -2 38 -7 65 -10 28 -3 61 -8 75 -10 14 -3 45
-7 70 -10 25 -3 61 -7 80 -10 19 -2 60 -7 90 -10 30 -3 66 -8 80 -10 14 -3 54
-7 90 -10 36 -3 86 -8 113 -11 108 -10 147 -13 242 -19 310 -21 516 -28 835
-28 259 0 611 9 700 18 19 2 82 6 140 10 58 3 121 8 140 10 19 1 75 6 124 10
50 4 97 8 105 10 9 1 48 6 86 9 39 4 81 9 95 11 14 2 48 6 75 10 143 17 217
27 293 40 15 2 48 7 73 10 25 3 83 12 130 20 159 29 244 45 269 50 14 3 52 10
85 16 33 6 141 28 240 51 99 22 187 41 195 43 348 76 1219 348 1505 470 17 7
84 34 150 60 159 63 330 137 492 212 l32 15 -38 76 c-144 289 -245 605 -301
947 -12 70 -13 85 -30 245 -8 81 -6 553 3 615 3 17 8 55 11 85 4 30 9 62 11
70 2 8 7 35 10 60 9 68 45 235 66 315 11 38 21 77 24 85 2 8 10 34 19 58 8 23
16 44 16 47 1 9 12 41 47 135 111 297 296 625 491 870 85 108 106 133 166 198
471 509 1062 854 1726 1007 58 13 125 26 150 30 25 3 52 8 60 10 8 2 39 7 69
10 30 4 63 9 75 11 97 19 520 25 676 11 126 -12 203 -22 290 -38 106 -18 115
-20 155 -31 22 -5 51 -12 65 -15 57 -10 318 -89 375 -114 11 -4 61 -25 110
-45 141 -57 344 -159 455 -229 81 -50 186 -121 198 -132 19 -18 35 -16 48 4
282 444 449 736 652 1143 100 199 125 251 212 445 92 202 203 473 281 681 49
132 194 550 197 567 0 4 17 58 36 120 33 105 79 264 96 332 5 17 20 73 34 126
14 53 28 111 31 129 3 18 8 37 11 42 5 7 8 21 20 76 2 12 14 62 25 110 12 48
23 96 25 106 2 11 13 65 25 120 11 56 23 110 25 121 2 11 7 40 10 65 3 25 8
48 10 51 2 3 8 34 13 70 6 35 13 73 15 84 2 11 7 40 11 65 4 25 9 52 10 60 2
8 8 51 15 95 17 117 20 137 25 165 2 14 7 52 10 85 3 33 8 67 10 75 2 8 6 44
10 80 3 36 7 76 9 90 3 14 7 54 10 90 4 36 8 88 11 115 8 78 15 173 21 260 3
44 7 109 9 145 27 398 23 1045 -9 1511 -13 181 -17 226 -42 459 -3 30 -7 69
-9 85 -5 56 -16 140 -20 165 -3 14 -7 42 -10 64 -7 58 -14 111 -31 216 -20
126 -20 131 -39 235 -9 50 -19 105 -22 124 -4 27 -42 211 -79 381 -72 337
-198 790 -320 1157 -51 154 -178 506 -209 578 -7 17 -36 89 -65 160 -49 119
-197 461 -219 502 -5 10 -61 124 -124 253 -125 255 -245 480 -373 698 -27 45
-58 98 -69 117 -11 19 -46 77 -79 130 -57 93 -59 95 -81 81 -131 -86 -443
-231 -645 -300 -71 -24 -238 -74 -270 -81 -8 -1 -33 -8 -55 -13 -22 -6 -51
-13 -65 -16 -14 -3 -50 -10 -80 -16 -327 -65 -711 -81 -1065 -46 -80 8 -238
33 -325 51 -14 3 -34 7 -45 9 -369 77 -788 249 -1135 466 -82 51 -269 184
-320 227 -139 116 -192 164 -295 268 -436 436 -742 961 -909 1561 -29 103 -82
361 -91 444 -3 30 -8 66 -10 80 -27 182 -27 621 -1 820 10 71 18 129 22 160
11 72 46 238 65 310 12 41 22 82 24 91 7 34 94 287 124 359 36 88 36 86 14 93
-10 3 -81 33 -158 67 -475 209 -986 392 -1502 540 -127 36 -539 141 -603 154
-14 2 -79 16 -145 31 -165 36 -292 60 -500 95 -66 11 -131 22 -145 24 -21 4
-86 13 -210 31 -69 10 -109 15 -155 20 -27 3 -66 7 -85 10 -85 11 -185 21
-290 30 -41 4 -91 8 -110 10 -36 3 -198 15 -285 20 -188 12 -899 26 -908 19z
m-3637 -9564 c30 -5 73 -11 95 -14 92 -12 125 -19 234 -48 189 -50 382 -128
521 -211 102 -61 149 -128 152 -214 2 -49 -9 -208 -17 -253 -3 -14 -9 -74 -15
-134 -12 -123 -24 -157 -70 -210 -45 -51 -112 -82 -183 -85 -68 -3 -114 11
-175 52 -25 17 -88 53 -139 79 -268 138 -560 179 -882 122 -56 -10 -210 -68
-281 -106 -283 -150 -503 -442 -580 -772 -33 -141 -43 -224 -43 -371 -2 -394
112 -701 347 -940 217 -221 467 -324 801 -330 151 -3 369 20 415 45 11 6 20 9
20 6 0 -12 218 71 336 129 128 62 192 85 224 80 8 -2 30 -5 48 -8 49 -8 119
-53 152 -98 48 -66 53 -97 46 -258 -17 -405 -21 -427 -90 -497 -110 -110 -501
-263 -791 -309 -115 -19 -222 -27 -364 -27 -118 -1 -286 8 -300 16 -3 2 -32 7
-64 10 -32 4 -64 9 -70 11 -7 3 -23 7 -37 9 -502 98 -1003 442 -1307 896 -168
251 -298 596 -337 900 -4 25 -9 63 -13 85 -9 63 -11 381 -2 475 11 110 18 164
29 220 5 25 12 56 14 70 8 51 46 187 75 270 242 704 830 1223 1556 1374 66 13
145 27 175 31 30 4 56 8 58 9 7 7 414 3 462 -4z m2284 -20 c10 -19 771 -1332
870 -1501 23 -40 220 -381 249 -432 11 -18 43 -72 72 -122 29 -49 71 -122 94
-162 23 -39 60 -88 84 -107 98 -81 264 -71 348 21 15 15 67 102 116 193 50 91
99 181 110 200 11 19 41 76 68 125 26 50 56 104 65 120 10 17 32 56 49 88 17
31 44 81 60 110 16 28 43 79 61 112 18 33 84 155 148 270 63 116 127 233 142
260 15 28 107 196 205 375 98 179 193 354 212 390 20 36 40 70 45 77 9 11 62
12 72 2 5 -5 29 -110 42 -179 3 -14 16 -81 30 -150 14 -69 28 -134 30 -145 2
-11 27 -132 55 -270 28 -137 52 -261 55 -275 3 -14 13 -65 24 -115 10 -49 21
-103 24 -120 5 -24 149 -740 247 -1220 11 -55 23 -111 25 -125 3 -14 23 -113
44 -220 48 -235 49 -237 56 -275 3 -16 9 -49 15 -73 5 -23 12 -59 15 -80 3
-20 8 -40 10 -43 2 -3 6 -21 9 -40 4 -27 24 -124 30 -149 1 -3 5 -25 9 -50 5
-25 10 -52 12 -60 34 -165 45 -219 49 -240 3 -14 7 -36 11 -50 3 -14 8 -53 11
-86 5 -52 2 -70 -19 -115 -29 -62 -73 -109 -126 -135 -33 -17 -64 -19 -312
-19 -264 0 -277 1 -316 22 -77 41 -126 113 -145 216 -5 29 -11 61 -13 72 -5
26 -34 182 -40 215 -2 14 -7 36 -10 50 -3 14 -7 39 -10 55 -2 17 -11 66 -20
110 -20 104 -25 133 -32 175 -3 19 -7 42 -9 50 -3 8 -7 33 -11 55 -12 85 -34
177 -48 203 -64 123 -233 174 -355 107 -29 -16 -64 -43 -76 -60 -19 -25 -119
-205 -297 -535 -17 -30 -49 -89 -71 -130 -79 -145 -96 -175 -125 -230 -16 -30
-50 -93 -76 -139 -25 -46 -46 -85 -46 -86 0 -2 -21 -41 -47 -87 -27 -47 -64
-114 -83 -151 -33 -63 -37 -67 -70 -67 -38 0 -31 -10 -170 236 -310 545 -712
1234 -737 1260 -51 54 -108 78 -183 78 -155 -1 -246 -96 -274 -284 -3 -19 -19
-107 -36 -195 -17 -88 -42 -218 -55 -290 -26 -142 -26 -142 -50 -265 -9 -47
-19 -96 -21 -110 -21 -128 -63 -201 -142 -248 l-47 -27 -250 0 c-239 0 -252 1
-291 22 -53 28 -109 93 -127 147 -13 39 -15 123 -4 171 6 23 106 516 113 555
5 23 230 1148 274 1362 11 54 22 110 25 125 3 16 12 60 19 98 8 39 25 126 39
195 14 69 28 136 31 150 4 26 43 219 51 255 19 94 64 316 68 340 3 17 16 86
31 155 14 69 28 136 30 150 8 39 35 172 41 200 3 14 8 36 10 50 2 14 7 36 10
50 3 14 8 41 12 60 4 19 8 37 8 40 1 3 5 25 9 50 10 57 18 66 56 66 22 -1 34
-8 44 -26z m6272 -28 c59 -30 106 -83 136 -154 27 -62 290 -704 413 -1008 81
-200 251 -614 280 -685 7 -16 41 -100 75 -185 34 -85 66 -159 71 -164 5 -6 9
-16 9 -24 0 -8 7 -28 15 -45 8 -18 154 -374 325 -792 290 -708 311 -764 313
-825 3 -98 -48 -185 -138 -233 l-40 -22 -1630 -3 c-1815 -3 -1675 -8 -1756 65
-59 53 -82 106 -83 188 0 64 6 86 78 270 94 240 130 334 202 525 31 80 60 154
64 165 18 39 560 1455 560 1461 0 3 7 20 15 37 8 18 30 75 50 127 19 52 39
104 44 115 12 28 52 130 101 260 23 61 52 137 65 170 13 33 53 139 90 235 36
96 70 184 75 195 5 11 27 67 49 125 78 201 129 229 406 226 150 -2 175 -5 211
-24z m-11445 -94 c59 -31 90 -63 125 -128 16 -31 18 -61 18 -290 1 -249 0
-256 -23 -304 -30 -60 -72 -102 -131 -130 -43 -20 -62 -20 -497 -22 l-452 -1
-56 -28 c-59 -29 -108 -84 -132 -148 -15 -43 -15 -123 1 -168 7 -19 94 -166
194 -326 99 -160 188 -306 198 -324 21 -42 24 -152 4 -194 -7 -16 -14 -32 -15
-35 -1 -5 -91 -145 -223 -348 -201 -308 -246 -386 -258 -442 -23 -116 39 -233
149 -281 51 -22 59 -22 527 -24 261 -1 489 -5 505 -10 67 -18 135 -81 167
-152 19 -43 21 -66 20 -284 0 -249 -5 -284 -47 -347 -30 -43 -90 -87 -140
-101 -57 -15 -2374 -15 -2430 0 -86 24 -160 104 -179 193 -12 56 -14 481 -2
559 6 40 64 132 396 631 214 321 399 602 411 625 29 55 30 140 2 201 -11 25
-78 133 -148 240 -70 107 -153 233 -183 280 -31 47 -116 177 -190 290 -74 113
-149 230 -166 260 l-31 55 0 300 0 300 27 47 c35 59 90 105 148 123 38 11 237
14 1199 14 l1154 1 58 -32z m15998 1 c77 -25 142 -88 167 -162 13 -39 16 -89
15 -264 -1 -193 -4 -220 -22 -263 -25 -57 -67 -100 -134 -134 l-49 -25 -443 0
c-427 0 -444 -1 -491 -21 -58 -25 -114 -79 -139 -135 -17 -38 -18 -121 -23
-1475 l-5 -1435 -22 -40 c-29 -54 -65 -91 -116 -118 -41 -21 -50 -22 -347 -22
-295 0 -306 1 -345 22 -59 32 -95 70 -121 128 l-24 51 -2 1429 -3 1430 -27 45
c-35 60 -73 94 -131 120 -46 21 -61 21 -480 21 -249 0 -447 4 -469 10 -62 16
-129 69 -162 129 l-31 55 0 235 c0 227 1 237 23 280 31 58 57 86 112 118 44
26 50 27 260 32 442 10 2972 1 3009 -11z"/>
<path d="M16133 12300 c-55 -24 -101 -66 -125 -114 -19 -38 -54 -137 -253
-713 -46 -134 -89 -252 -95 -263 -6 -11 -9 -20 -6 -20 2 0 -7 -30 -21 -67 -65
-178 -153 -442 -159 -479 -16 -103 63 -231 166 -268 49 -18 88 -19 569 -19
362 0 529 4 558 12 102 28 185 136 185 242 1 53 -17 112 -163 564 -22 66 -39
125 -39 132 0 8 -4 21 -10 31 -5 9 -37 105 -70 212 -34 107 -65 206 -70 220
-5 14 -36 111 -69 216 -67 211 -92 256 -166 300 -62 36 -169 42 -232 14z"/>
<path d="M2818 22136 c-1 -2 -39 -6 -83 -9 -252 -17 -544 -130 -753 -291 -303
-233 -492 -543 -568 -930 -9 -48 -17 -139 -18 -228 -10 -496 237 -968 653
-1250 362 -246 816 -315 1250 -192 163 47 374 159 511 272 83 68 202 196 263
281 153 212 235 426 273 706 10 74 7 291 -5 360 -6 33 -12 71 -15 85 -68 379
-310 738 -648 958 -166 108 -340 175 -555 216 -74 14 -295 30 -305 22z m150
-760 c15 -8 39 -27 54 -43 145 -153 -3 -398 -206 -339 -88 26 -149 109 -148
201 2 65 30 121 85 164 49 39 156 48 215 17z m554 -529 c46 -32 55 -43 77 -84
39 -77 26 -198 -28 -256 -57 -62 -27 -60 -695 -59 -402 0 -620 3 -636 10 -73
31 -110 97 -110 198 0 106 51 185 131 201 22 4 310 8 639 7 536 -1 601 -3 622
-17z m-567 -536 c99 -39 151 -168 109 -269 -67 -162 -291 -173 -371 -18 -60
118 -7 251 117 291 49 16 98 14 145 -4z"/>
<path d="M19889 5476 c-2 -2 -62 -6 -133 -10 -70 -3 -131 -8 -135 -10 -3 -2
-34 -7 -69 -10 -78 -8 -134 -19 -270 -51 -493 -117 -971 -391 -1311 -749 -25
-26 -60 -62 -76 -80 -88 -89 -262 -331 -344 -476 -48 -84 -126 -246 -161 -335
-71 -177 -147 -460 -164 -610 -4 -27 -8 -61 -11 -75 -32 -159 -21 -596 20
-801 3 -13 8 -37 11 -54 4 -25 25 -118 39 -175 57 -231 189 -531 330 -753 130
-203 219 -313 389 -482 402 -400 890 -653 1456 -755 161 -29 254 -35 500 -34
194 1 294 9 465 39 66 11 248 56 265 65 11 6 20 8 20 6 0 -7 203 66 293 105
311 135 572 310 817 546 349 337 597 746 730 1205 35 122 75 315 85 408 4 36
10 93 14 128 8 67 6 452 -3 491 -3 13 -8 49 -11 80 -4 31 -13 92 -21 136 -9
44 -18 94 -21 110 -9 54 -70 258 -109 365 -53 145 -184 402 -276 540 -317 476
-740 822 -1273 1039 -11 5 -33 14 -49 20 -87 35 -344 107 -446 125 -19 3 -46
8 -60 11 -14 3 -47 8 -75 11 -27 3 -75 9 -106 13 -30 4 -109 8 -174 10 -66 1
-122 4 -126 7 -3 2 -8 2 -10 0z m-818 -1486 c26 -14 167 -147 372 -352 244
-244 342 -336 375 -350 63 -28 136 -30 201 -6 49 18 90 56 393 358 374 373
381 378 493 375 80 -3 143 -34 205 -102 64 -70 82 -112 83 -193 1 -111 -5
-120 -370 -485 -219 -219 -338 -345 -353 -375 -31 -60 -32 -157 -3 -220 15
-34 107 -133 361 -388 335 -335 341 -343 360 -403 21 -68 15 -144 -15 -202
-24 -47 -121 -137 -172 -160 -62 -28 -150 -27 -212 2 -33 16 -135 112 -375
351 -365 366 -385 382 -492 382 -109 0 -121 -9 -485 -373 -193 -192 -349 -340
-372 -351 -22 -12 -67 -23 -101 -26 -78 -6 -147 24 -217 92 -89 89 -115 182
-81 291 17 53 36 74 356 395 371 372 380 383 379 491 0 109 -10 121 -373 485
-183 183 -341 350 -352 371 -26 50 -31 157 -9 212 17 43 99 136 147 167 72 46
181 52 257 14z"/>
<path d="M3557 4674 c-1 -1 -30 -5 -65 -8 -314 -30 -641 -187 -875 -419 -245
-242 -394 -553 -432 -902 -7 -56 -7 -256 -1 -300 1 -11 6 -45 10 -75 81 -592
562 -1099 1161 -1224 164 -34 410 -39 555 -11 399 77 732 290 958 610 112 158
209 380 237 544 3 19 8 37 10 41 10 16 20 168 19 295 -2 284 -85 549 -251 800
-81 121 -251 295 -372 380 -199 139 -453 237 -678 261 -57 6 -271 13 -276 8z
m745 -1288 c49 -23 68 -46 88 -106 36 -105 0 -225 -79 -269 l-44 -24 -611 0
c-663 0 -641 -1 -693 55 -47 50 -65 146 -43 228 14 52 63 107 110 123 27 9
191 12 635 11 550 0 603 -2 637 -18z"/>
</g>
</svg>
